<svg width="739" height="99" viewBox="0 0 739 99" fill="none" xmlns="http://www.w3.org/2000/svg">
<path d="M40.66 0L73.14 87.92C74.1667 90.5333 75.2867 92.6333 76.5 94.22C77.7133 95.8067 79.3 96.8333 81.26 97.3V98H60.12V97.3C63.8533 96.46 64.6933 93.3333 62.64 87.92L52 59.36H20.36L9.86 87.92C7.80666 93.3333 8.64666 96.46 12.38 97.3V98H0.199997V97.3C2.16 96.8333 3.74666 95.8067 4.96 94.22C6.17333 92.6333 7.29333 90.5333 8.32 87.92L40.66 0ZM20.92 57.96H51.58L36.18 16.52L20.92 57.96Z" fill="#3C3C3C"/>
<path d="M94.9341 11.62C94.9341 9.75334 94.7474 8.68 94.3741 8.4C94.0007 8.02667 93.4407 7.84 92.6941 7.84V7.14C94.5607 6.95334 96.6607 6.25334 98.9941 5.04C101.327 3.73334 103.007 2.05333 104.034 0H104.734V87.92C104.734 90.6267 105.107 92.7733 105.854 94.36C106.694 95.8533 108.094 96.8333 110.054 97.3V98H89.6141V97.3C91.5741 96.8333 92.9274 95.8533 93.6741 94.36C94.5141 92.7733 94.9341 90.6267 94.9341 87.92V11.62Z" fill="#3C3C3C"/>
<path d="M150.522 28C154.815 28 158.502 28.84 161.582 30.52C164.755 32.2 167.182 34.3 168.862 36.82C170.542 39.34 171.428 42.0467 171.522 44.94C171.615 47.8333 170.775 50.54 169.002 53.06C167.228 55.58 164.382 57.68 160.462 59.36C156.635 61.04 151.642 61.88 145.482 61.88C143.055 61.88 140.442 61.74 137.642 61.46C134.842 61.0867 131.808 60.5733 128.542 59.92C128.448 64.0267 128.822 68.0867 129.662 72.1C130.595 76.1133 131.948 79.8 133.722 83.16C135.588 86.4267 137.922 89.2267 140.722 91.56C143.522 93.8 146.788 95.2 150.522 95.76C155.282 96.5067 159.995 95.8067 164.662 93.66C169.422 91.5133 173.435 87.6867 176.702 82.18L178.242 82.88C176.468 85.96 174.462 88.48 172.222 90.44C169.982 92.4 167.648 93.94 165.222 95.06C162.795 96.18 160.322 96.9733 157.802 97.44C155.375 97.8133 152.948 98 150.522 98C143.242 98 137.222 96.2733 132.462 92.82C127.702 89.3667 124.155 85.0733 121.822 79.94C119.582 74.7133 118.508 69.0667 118.602 63C118.695 56.9333 119.955 51.3333 122.382 46.2C124.808 40.9733 128.355 36.6333 133.022 33.18C137.782 29.7267 143.615 28 150.522 28ZM128.542 58.52C129.942 58.7067 131.248 58.8467 132.462 58.94C133.768 59.0333 135.075 59.08 136.382 59.08C141.515 59.08 145.948 58.38 149.682 56.98C153.415 55.4867 156.448 53.6667 158.782 51.52C161.208 49.3733 162.888 47.04 163.822 44.52C164.848 41.9067 165.128 39.5267 164.662 37.38C164.288 35.2333 163.168 33.46 161.302 32.06C159.435 30.5667 156.822 29.82 153.462 29.82C150.008 29.82 146.788 30.6133 143.802 32.2C140.815 33.7867 138.202 35.8867 135.962 38.5C133.815 41.1133 132.088 44.1467 130.782 47.6C129.475 51.0533 128.728 54.6933 128.542 58.52Z" fill="#3C3C3C"/>
<path d="M192.004 11.62C192.004 9.75334 191.818 8.68 191.444 8.4C191.071 8.02667 190.511 7.84 189.764 7.84V7.14C191.631 6.95334 193.731 6.25334 196.064 5.04C198.398 3.73334 200.078 2.05333 201.104 0H201.804V52.08C204.231 48.44 206.984 45.08 210.064 42C213.144 38.92 216.271 36.3067 219.444 34.16C222.711 32.0133 225.884 30.38 228.964 29.26C232.138 28.14 235.031 27.7667 237.644 28.14C238.764 28.2333 239.558 28.6533 240.024 29.4C240.491 30.1467 240.631 30.94 240.444 31.78C240.351 32.5267 239.931 33.2267 239.184 33.88C238.438 34.44 237.364 34.6733 235.964 34.58C234.004 34.4867 231.858 34.58 229.524 34.86C227.191 35.0467 224.811 35.56 222.384 36.4C219.958 37.24 217.484 38.5 214.964 40.18C212.444 41.7667 210.064 43.96 207.824 46.76L238.064 87.92C239.931 90.5333 241.798 92.6333 243.664 94.22C245.531 95.8067 247.584 96.8333 249.824 97.3V98H227.004V97.3C228.684 96.8333 229.384 95.8067 229.104 94.22C228.918 92.6333 227.844 90.5333 225.884 87.92L201.804 55.3V87.92C201.804 90.6267 202.178 92.7733 202.924 94.36C203.764 95.8533 205.164 96.8333 207.124 97.3V98H186.684V97.3C188.644 96.8333 189.998 95.8533 190.744 94.36C191.584 92.7733 192.004 90.6267 192.004 87.92V11.62Z" fill="#3C3C3C"/>
<path d="M300.048 80.22C299.675 78.1667 298.462 76.3467 296.408 74.76C294.448 73.08 292.068 71.4933 289.268 70C286.562 68.4133 283.668 66.8267 280.588 65.24C277.508 63.6533 274.662 61.9733 272.048 60.2C269.528 58.3333 267.382 56.28 265.608 54.04C263.928 51.8 263.088 49.2333 263.088 46.34C263.088 42.7933 263.835 39.7133 265.328 37.1C266.915 34.4867 268.922 32.34 271.348 30.66C273.868 28.8867 276.668 27.58 279.748 26.74C282.922 25.9 286.095 25.48 289.268 25.48C291.788 25.48 294.215 25.76 296.548 26.32C298.882 26.7867 301.028 27.5333 302.988 28.56C304.948 29.4933 306.628 30.7067 308.028 32.2C309.522 33.6933 310.548 35.42 311.108 37.38C311.575 38.9667 311.388 40.2733 310.548 41.3C309.708 42.3267 308.775 42.84 307.748 42.84C307.002 42.84 306.302 42.56 305.648 42C304.995 41.44 304.528 40.5533 304.248 39.34C303.222 35.0467 301.215 31.92 298.228 29.96C295.335 28 292.162 27.02 288.708 27.02C286.468 27.02 284.275 27.3933 282.128 28.14C279.982 28.8867 278.068 29.96 276.388 31.36C274.802 32.6667 273.542 34.3 272.608 36.26C271.675 38.1267 271.348 40.2733 271.628 42.7C271.908 45.0333 272.888 47.1333 274.568 49C276.248 50.8667 278.348 52.5933 280.868 54.18C283.388 55.7667 286.095 57.3067 288.988 58.8C291.975 60.2933 294.775 61.88 297.388 63.56C300.095 65.24 302.475 67.06 304.528 69.02C306.675 70.98 308.168 73.22 309.008 75.74C310.222 79.5667 310.315 82.88 309.288 85.68C308.262 88.48 306.488 90.8133 303.968 92.68C301.448 94.5467 298.415 95.9467 294.868 96.88C291.415 97.72 287.822 98.14 284.088 98.14C280.822 98.14 277.648 97.8133 274.568 97.16C271.488 96.5067 268.735 95.5267 266.308 94.22C263.882 92.82 261.922 91.1867 260.428 89.32C258.935 87.36 258.188 85.12 258.188 82.6C258.188 81.0133 258.562 79.8933 259.308 79.24C260.148 78.4933 261.082 78.12 262.108 78.12C262.855 78.12 263.462 78.3533 263.928 78.82C264.488 79.1933 264.862 79.8467 265.048 80.78C265.422 83.4867 266.215 85.82 267.428 87.78C268.642 89.74 270.135 91.3733 271.908 92.68C273.682 93.9867 275.595 94.9667 277.648 95.62C279.795 96.2733 281.942 96.6 284.088 96.6C286.422 96.6 288.662 96.2733 290.808 95.62C293.048 94.8733 294.915 93.8 296.408 92.4C297.995 91 299.115 89.2733 299.768 87.22C300.515 85.1667 300.608 82.8333 300.048 80.22Z" fill="#3C3C3C"/>
<path d="M365.208 79.24C364.088 82.2267 362.548 84.98 360.588 87.5C358.628 90.02 356.388 92.12 353.868 93.8C351.348 95.48 348.548 96.74 345.468 97.58C342.482 98.3267 339.355 98.4667 336.088 98C331.048 97.2533 327.128 95.4333 324.328 92.54C321.622 89.6467 320.175 86.38 319.988 82.74C319.802 79.0067 320.968 75.32 323.488 71.68C326.008 68.04 330.022 65.1467 335.528 63C338.982 61.6 342.388 60.4333 345.748 59.5C349.202 58.4733 352.328 57.3067 355.128 56C357.928 54.6 360.215 52.8733 361.988 50.82C363.855 48.7667 364.882 46.0133 365.068 42.56C365.255 37.8 364.088 34.2067 361.568 31.78C359.142 29.3533 356.202 28.14 352.748 28.14C350.042 28.14 347.242 28.98 344.348 30.66C341.548 32.2467 339.122 34.72 337.068 38.08C335.855 39.9467 334.502 40.88 333.008 40.88C331.795 40.88 330.862 40.4133 330.208 39.48C329.555 38.4533 329.508 37.3333 330.068 36.12C330.722 34.72 331.748 33.46 333.148 32.34C334.548 31.1267 336.182 30.1 338.048 29.26C339.915 28.42 341.922 27.7667 344.068 27.3C346.308 26.8333 348.595 26.6 350.928 26.6C353.915 26.6 356.808 27.0667 359.608 28C362.502 28.84 365.068 30.2867 367.308 32.34C369.642 34.3 371.508 36.9133 372.908 40.18C374.308 43.4467 375.008 47.4133 375.008 52.08V87.92C375.008 90.6267 375.382 92.7733 376.128 94.36C376.968 95.8533 378.368 96.8333 380.328 97.3V98H359.888V97.3C361.848 96.8333 363.202 95.3867 363.948 92.96C364.788 90.5333 365.208 87.6867 365.208 84.42V79.24ZM365.208 48.58C363.995 51.1933 362.268 53.2467 360.028 54.74C357.882 56.2333 355.502 57.54 352.888 58.66C350.275 59.6867 347.568 60.7133 344.768 61.74C342.062 62.7667 339.495 64.12 337.068 65.8C334.642 67.48 332.775 69.8133 331.468 72.8C330.255 75.7867 329.695 78.7733 329.788 81.76C329.975 84.7467 330.908 87.5 332.588 90.02C334.268 92.54 336.835 94.1733 340.288 94.92C343.742 95.6667 346.962 95.3867 349.948 94.08C353.028 92.7733 355.688 90.9067 357.928 88.48C360.168 85.96 361.942 83.16 363.248 80.08C364.555 77 365.208 74.06 365.208 71.26V48.58Z" fill="#3C3C3C"/>
<path d="M430.442 10.08C430.442 7.37334 430.022 5.27334 429.182 3.78C428.435 2.19333 427.082 1.16667 425.122 0.700001V0H458.442C465.162 0 470.995 1.4 475.942 4.2C480.982 7 485.182 10.7333 488.542 15.4C491.902 19.9733 494.422 25.2 496.102 31.08C497.782 36.8667 498.622 42.84 498.622 49C498.622 55.16 497.782 61.18 496.102 67.06C494.515 72.8467 492.042 78.0733 488.682 82.74C485.322 87.3133 481.122 91 476.082 93.8C471.042 96.6 465.162 98 458.442 98H425.122V97.3C427.082 96.8333 428.435 95.8533 429.182 94.36C430.022 92.7733 430.442 90.6267 430.442 87.92V10.08ZM454.242 96.6C459.842 96.6 464.789 95.2467 469.082 92.54C473.375 89.8333 476.969 86.24 479.862 81.76C482.755 77.28 484.902 72.1933 486.302 66.5C487.795 60.8067 488.589 54.9733 488.682 49C488.775 43.0267 488.122 37.1933 486.722 31.5C485.322 25.8067 483.175 20.72 480.282 16.24C477.482 11.76 473.889 8.16667 469.502 5.46001C465.209 2.75334 460.122 1.4 454.242 1.4H445.562C443.509 1.4 442.109 2.19333 441.362 3.78C440.615 5.27334 440.242 7.37334 440.242 10.08V87.92C440.242 90.6267 440.615 92.7733 441.362 94.36C442.109 95.8533 443.509 96.6 445.562 96.6H454.242Z" fill="#3C3C3C"/>
<path d="M517.373 23.1C515.32 23.1 513.78 22.4933 512.753 21.28C511.82 20.0667 511.353 18.7133 511.353 17.22C511.353 15.7267 511.82 14.3733 512.753 13.16C513.78 11.9467 515.32 11.34 517.373 11.34C519.333 11.34 520.78 11.9467 521.713 13.16C522.74 14.3733 523.253 15.7267 523.253 17.22C523.253 18.7133 522.74 20.0667 521.713 21.28C520.78 22.4933 519.333 23.1 517.373 23.1ZM512.473 39.62C512.473 37.7533 512.286 36.68 511.913 36.4C511.54 36.0267 510.98 35.84 510.233 35.84V35.14C512.1 34.9533 514.2 34.2533 516.533 33.04C518.866 31.7333 520.546 30.0533 521.573 28H522.273V87.92C522.273 90.6267 522.646 92.7733 523.393 94.36C524.233 95.8533 525.633 96.8333 527.593 97.3V98H507.153V97.3C509.113 96.8333 510.466 95.8533 511.213 94.36C512.053 92.7733 512.473 90.6267 512.473 87.92V39.62Z" fill="#3C3C3C"/>
<path d="M581.361 79.24C580.241 82.2267 578.701 84.98 576.741 87.5C574.781 90.02 572.541 92.12 570.021 93.8C567.501 95.48 564.701 96.74 561.621 97.58C558.634 98.3267 555.507 98.4667 552.241 98C547.201 97.2533 543.281 95.4333 540.481 92.54C537.774 89.6467 536.327 86.38 536.141 82.74C535.954 79.0067 537.121 75.32 539.641 71.68C542.161 68.04 546.174 65.1467 551.681 63C555.134 61.6 558.541 60.4333 561.901 59.5C565.354 58.4733 568.481 57.3067 571.281 56C574.081 54.6 576.367 52.8733 578.141 50.82C580.007 48.7667 581.034 46.0133 581.221 42.56C581.407 37.8 580.241 34.2067 577.721 31.78C575.294 29.3533 572.354 28.14 568.901 28.14C566.194 28.14 563.394 28.98 560.501 30.66C557.701 32.2467 555.274 34.72 553.221 38.08C552.007 39.9467 550.654 40.88 549.161 40.88C547.947 40.88 547.014 40.4133 546.361 39.48C545.707 38.4533 545.661 37.3333 546.221 36.12C546.874 34.72 547.901 33.46 549.301 32.34C550.701 31.1267 552.334 30.1 554.201 29.26C556.067 28.42 558.074 27.7667 560.221 27.3C562.461 26.8333 564.747 26.6 567.081 26.6C570.067 26.6 572.961 27.0667 575.761 28C578.654 28.84 581.221 30.2867 583.461 32.34C585.794 34.3 587.661 36.9133 589.061 40.18C590.461 43.4467 591.161 47.4133 591.161 52.08V87.92C591.161 90.6267 591.534 92.7733 592.281 94.36C593.121 95.8533 594.521 96.8333 596.481 97.3V98H576.041V97.3C578.001 96.8333 579.354 95.3867 580.101 92.96C580.941 90.5333 581.361 87.6867 581.361 84.42V79.24ZM581.361 48.58C580.147 51.1933 578.421 53.2467 576.181 54.74C574.034 56.2333 571.654 57.54 569.041 58.66C566.427 59.6867 563.721 60.7133 560.921 61.74C558.214 62.7667 555.647 64.12 553.221 65.8C550.794 67.48 548.927 69.8133 547.621 72.8C546.407 75.7867 545.847 78.7733 545.941 81.76C546.127 84.7467 547.061 87.5 548.741 90.02C550.421 92.54 552.987 94.1733 556.441 94.92C559.894 95.6667 563.114 95.3867 566.101 94.08C569.181 92.7733 571.841 90.9067 574.081 88.48C576.321 85.96 578.094 83.16 579.401 80.08C580.707 77 581.361 74.06 581.361 71.26V48.58Z" fill="#3C3C3C"/>
<path d="M610.227 39.62C610.227 37.7533 610.04 36.68 609.667 36.4C609.294 36.0267 608.734 35.84 607.987 35.84V35.14C609.854 34.9533 611.954 34.2533 614.287 33.04C616.62 31.7333 618.3 30.0533 619.327 28H620.027V42.28C622.36 37.24 625.534 33.5533 629.547 31.22C633.654 28.7933 637.9 27.58 642.287 27.58C645.087 27.58 647.794 28.0933 650.407 29.12C653.02 30.0533 655.307 31.5 657.267 33.46C659.32 35.3267 660.954 37.7067 662.167 40.6C663.38 43.4 663.987 46.6667 663.987 50.4V87.92C663.987 90.6267 664.36 92.7733 665.107 94.36C665.947 95.8533 667.347 96.8333 669.307 97.3V98H648.867V97.3C650.827 96.8333 652.18 95.8533 652.927 94.36C653.767 92.7733 654.187 90.6267 654.187 87.92V46.48C654.187 43.4 653.814 40.7867 653.067 38.64C652.414 36.4933 651.48 34.72 650.267 33.32C649.054 31.92 647.607 30.8933 645.927 30.24C644.34 29.5867 642.66 29.26 640.887 29.26C638.554 29.26 636.127 29.82 633.607 30.94C631.18 32.06 628.94 33.6 626.887 35.56C624.834 37.52 623.154 39.8533 621.847 42.56C620.634 45.2667 620.027 48.2533 620.027 51.52V87.92C620.027 90.6267 620.4 92.7733 621.147 94.36C621.987 95.8533 623.387 96.8333 625.347 97.3V98H604.907V97.3C606.867 96.8333 608.22 95.8533 608.967 94.36C609.807 92.7733 610.227 90.6267 610.227 87.92V39.62Z" fill="#3C3C3C"/>
<path d="M723.001 79.24C721.881 82.2267 720.341 84.98 718.381 87.5C716.421 90.02 714.181 92.12 711.661 93.8C709.141 95.48 706.341 96.74 703.261 97.58C700.275 98.3267 697.148 98.4667 693.881 98C688.841 97.2533 684.921 95.4333 682.121 92.54C679.415 89.6467 677.968 86.38 677.781 82.74C677.595 79.0067 678.761 75.32 681.281 71.68C683.801 68.04 687.815 65.1467 693.321 63C696.775 61.6 700.181 60.4333 703.541 59.5C706.995 58.4733 710.121 57.3067 712.921 56C715.721 54.6 718.008 52.8733 719.781 50.82C721.648 48.7667 722.675 46.0133 722.861 42.56C723.048 37.8 721.881 34.2067 719.361 31.78C716.935 29.3533 713.995 28.14 710.541 28.14C707.835 28.14 705.035 28.98 702.141 30.66C699.341 32.2467 696.915 34.72 694.861 38.08C693.648 39.9467 692.295 40.88 690.801 40.88C689.588 40.88 688.655 40.4133 688.001 39.48C687.348 38.4533 687.301 37.3333 687.861 36.12C688.515 34.72 689.541 33.46 690.941 32.34C692.341 31.1267 693.975 30.1 695.841 29.26C697.708 28.42 699.715 27.7667 701.861 27.3C704.101 26.8333 706.388 26.6 708.721 26.6C711.708 26.6 714.601 27.0667 717.401 28C720.295 28.84 722.861 30.2867 725.101 32.34C727.435 34.3 729.301 36.9133 730.701 40.18C732.101 43.4467 732.801 47.4133 732.801 52.08V87.92C732.801 90.6267 733.175 92.7733 733.921 94.36C734.761 95.8533 736.161 96.8333 738.121 97.3V98H717.681V97.3C719.641 96.8333 720.995 95.3867 721.741 92.96C722.581 90.5333 723.001 87.6867 723.001 84.42V79.24ZM723.001 48.58C721.788 51.1933 720.061 53.2467 717.821 54.74C715.675 56.2333 713.295 57.54 710.681 58.66C708.068 59.6867 705.361 60.7133 702.561 61.74C699.855 62.7667 697.288 64.12 694.861 65.8C692.435 67.48 690.568 69.8133 689.261 72.8C688.048 75.7867 687.488 78.7733 687.581 81.76C687.768 84.7467 688.701 87.5 690.381 90.02C692.061 92.54 694.628 94.1733 698.081 94.92C701.535 95.6667 704.755 95.3867 707.741 94.08C710.821 92.7733 713.481 90.9067 715.721 88.48C717.961 85.96 719.735 83.16 721.041 80.08C722.348 77 723.001 74.06 723.001 71.26V48.58Z" fill="#3C3C3C"/>
</svg>
